<svg xmlns="http://www.w3.org/2000/svg" viewBox="0 0 400 500" width="400" height="500">
  <rect width="400" height="500" fill="#2c1810"/>
  <rect x="15" y="15" width="370" height="470" fill="#8B7355" rx="5"/>
  <rect x="25" y="25" width="350" height="450" fill="#3d2b1f" rx="3"/>
  <path d="M25 300 Q100 250 180 280 Q250 250 350 290 L375 475 L25 475 Z" fill="#4a6741"/>
  <path d="M25 280 Q150 220 250 260 Q320 240 375 270 L375 300 Q250 270 180 300 Q100 270 25 320 Z" fill="#6b8f71"/>
  <rect x="25" y="25" width="350" height="260" fill="#87a5b0" rx="3"/>
  <ellipse cx="200" cy="180" rx="60" ry="70" fill="#c4956a"/>
  <path d="M140 160 Q140 100 200 90 Q260 100 260 160 Q255 180 250 200 L245 210 Q240 170 200 165 Q160 170 155 210 L150 200 Q145 180 140 160Z" fill="#2c1810"/>
  <!-- GOOGLY EYES! -->
  <circle cx="182" cy="168" r="20" fill="white" stroke="#555" stroke-width="2"/>
  <circle cx="175" cy="175" r="10" fill="#111"/>
  <circle cx="172" cy="165" r="3" fill="white" opacity="0.7"/>
  <circle cx="218" cy="166" r="22" fill="white" stroke="#555" stroke-width="2"/>
  <circle cx="225" cy="172" r="11" fill="#111"/>
  <circle cx="222" cy="162" r="3.5" fill="white" opacity="0.7"/>
  <!-- Nose -->
  <path d="M197 185 Q200 193 203 185" stroke="#8B6914" fill="none" stroke-width="1.5"/>
  <path d="M185 200 Q200 210 215 200" stroke="#8B6914" fill="none" stroke-width="2"/>
  <path d="M155 220 Q150 300 130 400 L270 400 Q250 300 245 220 Q220 210 200 210 Q180 210 155 220Z" fill="#3d2b1f"/>
  <ellipse cx="160" cy="320" rx="25" ry="15" fill="#c4956a" transform="rotate(-10 160 320)"/>
  <ellipse cx="240" cy="310" rx="25" ry="15" fill="#c4956a" transform="rotate(10 240 310)"/>
  <!-- Googly eyes on hands too because why not -->
  <circle cx="160" cy="318" r="10" fill="white" stroke="#555" stroke-width="1.5"/>
  <circle cx="157" cy="321" r="5" fill="#111"/>
  <circle cx="240" cy="308" r="10" fill="white" stroke="#555" stroke-width="1.5"/>
  <circle cx="243" cy="311" r="5" fill="#111"/>
  <!-- Mountain got eyes -->
  <circle cx="180" cy="268" r="8" fill="white" stroke="#555" stroke-width="1"/>
  <circle cx="178" cy="270" r="4" fill="#111"/>
  <circle cx="196" cy="266" r="9" fill="white" stroke="#555" stroke-width="1"/>
  <circle cx="199" cy="268" r="4.5" fill="#111"/>
  <text x="200" y="490" text-anchor="middle" fill="#4ecca3" font-family="serif" font-size="14" font-weight="bold">After: A MASTERPIECE</text>
</svg>
