<svg xmlns="http://www.w3.org/2000/svg" viewBox="0 0 600 400" width="600" height="400">
  <defs>
    <linearGradient id="skyGrad" x1="0%" y1="0%" x2="0%" y2="100%">
      <stop offset="0%" style="stop-color:#1a0533"/>
      <stop offset="40%" style="stop-color:#2d1b69"/>
      <stop offset="70%" style="stop-color:#e8734a"/>
      <stop offset="100%" style="stop-color:#f5a623"/>
    </linearGradient>
    <linearGradient id="bldg1" x1="0%" y1="0%" x2="100%" y2="0%">
      <stop offset="0%" style="stop-color:#1a1a2e"/>
      <stop offset="100%" style="stop-color:#2a2a3e"/>
    </linearGradient>
    <linearGradient id="bldg2" x1="0%" y1="0%" x2="100%" y2="0%">
      <stop offset="0%" style="stop-color:#16213e"/>
      <stop offset="100%" style="stop-color:#1a1a2e"/>
    </linearGradient>
    <linearGradient id="waterGrad" x1="0%" y1="0%" x2="0%" y2="100%">
      <stop offset="0%" style="stop-color:#e8734a;stop-opacity:0.4"/>
      <stop offset="100%" style="stop-color:#1a0533;stop-opacity:0.8"/>
    </linearGradient>
  </defs>
  <!-- Sky -->
  <rect width="600" height="400" fill="url(#skyGrad)"/>
  <!-- Stars -->
  <circle cx="50" cy="30" r="1" fill="white" opacity="0.8"/>
  <circle cx="120" cy="15" r="1.5" fill="white" opacity="0.6"/>
  <circle cx="200" cy="45" r="1" fill="white" opacity="0.7"/>
  <circle cx="450" cy="25" r="1.5" fill="white" opacity="0.5"/>
  <circle cx="530" cy="50" r="1" fill="white" opacity="0.8"/>
  <!-- Water -->
  <rect x="0" y="300" width="600" height="100" fill="url(#waterGrad)"/>
  <!-- Water reflections -->
  <line x1="50" y1="320" x2="90" y2="320" stroke="#f5a623" stroke-width="1" opacity="0.3"/>
  <line x1="200" y1="340" x2="260" y2="340" stroke="#e8734a" stroke-width="1" opacity="0.2"/>
  <line x1="400" y1="330" x2="450" y2="330" stroke="#f5a623" stroke-width="1" opacity="0.25"/>
  <line x1="150" y1="360" x2="200" y2="360" stroke="#e8734a" stroke-width="1" opacity="0.15"/>
  <!-- Far buildings -->
  <rect x="20" y="220" width="40" height="80" fill="#0d0d1a" opacity="0.7"/>
  <rect x="70" y="200" width="35" height="100" fill="#0d0d1a" opacity="0.7"/>
  <rect x="480" y="210" width="45" height="90" fill="#0d0d1a" opacity="0.7"/>
  <rect x="535" y="230" width="50" height="70" fill="#0d0d1a" opacity="0.7"/>
  <!-- Main buildings -->
  <!-- Tall skyscraper left -->
  <rect x="120" y="100" width="50" height="200" fill="url(#bldg1)"/>
  <rect x="125" y="80" width="40" height="25" fill="#1a1a2e"/>
  <line x1="145" y1="80" x2="145" y2="60" stroke="#555" stroke-width="3"/>
  <circle cx="145" cy="57" r="3" fill="#e94560" opacity="0.8"/>
  <!-- Windows -->
  <g opacity="0.8">
    <rect x="127" y="110" width="6" height="4" fill="#ffd700" opacity="0.7"/>
    <rect x="137" y="110" width="6" height="4" fill="#ffd700" opacity="0.5"/>
    <rect x="147" y="110" width="6" height="4" fill="#ffd700" opacity="0.9"/>
    <rect x="157" y="110" width="6" height="4" fill="#ffd700" opacity="0.3"/>
    <rect x="127" y="120" width="6" height="4" fill="#ffd700" opacity="0.4"/>
    <rect x="147" y="120" width="6" height="4" fill="#ffd700" opacity="0.8"/>
    <rect x="127" y="130" width="6" height="4" fill="#ffd700" opacity="0.6"/>
    <rect x="137" y="130" width="6" height="4" fill="#ffd700" opacity="0.9"/>
    <rect x="157" y="130" width="6" height="4" fill="#ffd700" opacity="0.5"/>
    <rect x="127" y="150" width="6" height="4" fill="#ffd700" opacity="0.7"/>
    <rect x="147" y="150" width="6" height="4" fill="#ffd700" opacity="0.4"/>
    <rect x="157" y="150" width="6" height="4" fill="#ffd700" opacity="0.8"/>
    <rect x="137" y="170" width="6" height="4" fill="#ffd700" opacity="0.6"/>
    <rect x="157" y="170" width="6" height="4" fill="#ffd700" opacity="0.3"/>
    <rect x="127" y="190" width="6" height="4" fill="#ffd700" opacity="0.9"/>
    <rect x="147" y="190" width="6" height="4" fill="#ffd700" opacity="0.5"/>
    <rect x="127" y="210" width="6" height="4" fill="#ffd700" opacity="0.4"/>
    <rect x="137" y="210" width="6" height="4" fill="#ffd700" opacity="0.7"/>
    <rect x="157" y="210" width="6" height="4" fill="#ffd700" opacity="0.8"/>
    <rect x="127" y="250" width="6" height="4" fill="#ffd700" opacity="0.6"/>
    <rect x="147" y="250" width="6" height="4" fill="#ffd700" opacity="0.9"/>
    <rect x="157" y="250" width="6" height="4" fill="#ffd700" opacity="0.4"/>
    <rect x="137" y="270" width="6" height="4" fill="#ffd700" opacity="0.7"/>
    <rect x="147" y="270" width="6" height="4" fill="#ffd700" opacity="0.5"/>
  </g>
  <!-- Wide building center -->
  <rect x="200" y="150" width="80" height="150" fill="url(#bldg2)"/>
  <g opacity="0.7">
    <rect x="208" y="160" width="8" height="5" fill="#ffd700" opacity="0.8"/>
    <rect x="222" y="160" width="8" height="5" fill="#ffd700" opacity="0.5"/>
    <rect x="236" y="160" width="8" height="5" fill="#ffd700" opacity="0.9"/>
    <rect x="250" y="160" width="8" height="5" fill="#ffd700" opacity="0.4"/>
    <rect x="264" y="160" width="8" height="5" fill="#ffd700" opacity="0.7"/>
    <rect x="208" y="175" width="8" height="5" fill="#ffd700" opacity="0.3"/>
    <rect x="236" y="175" width="8" height="5" fill="#ffd700" opacity="0.6"/>
    <rect x="264" y="175" width="8" height="5" fill="#ffd700" opacity="0.8"/>
    <rect x="222" y="190" width="8" height="5" fill="#ffd700" opacity="0.9"/>
    <rect x="250" y="190" width="8" height="5" fill="#ffd700" opacity="0.5"/>
    <rect x="208" y="205" width="8" height="5" fill="#ffd700" opacity="0.7"/>
    <rect x="236" y="205" width="8" height="5" fill="#ffd700" opacity="0.4"/>
    <rect x="264" y="205" width="8" height="5" fill="#ffd700" opacity="0.6"/>
    <rect x="222" y="220" width="8" height="5" fill="#ffd700" opacity="0.8"/>
    <rect x="250" y="220" width="8" height="5" fill="#ffd700" opacity="0.3"/>
    <rect x="208" y="250" width="8" height="5" fill="#ffd700" opacity="0.9"/>
    <rect x="236" y="250" width="8" height="5" fill="#ffd700" opacity="0.5"/>
    <rect x="264" y="250" width="8" height="5" fill="#ffd700" opacity="0.7"/>
    <rect x="222" y="270" width="8" height="5" fill="#ffd700" opacity="0.4"/>
    <rect x="250" y="270" width="8" height="5" fill="#ffd700" opacity="0.8"/>
  </g>
  <!-- Supertall tower -->
  <rect x="330" y="60" width="40" height="240" fill="#1a1a2e"/>
  <polygon points="335,60 350,25 365,60" fill="#16213e"/>
  <line x1="350" y1="25" x2="350" y2="10" stroke="#666" stroke-width="2"/>
  <circle cx="350" cy="8" r="3" fill="#e94560" opacity="0.9"/>
  <g opacity="0.7">
    <rect x="336" y="70" width="5" height="3" fill="#ffd700" opacity="0.8"/>
    <rect x="348" y="70" width="5" height="3" fill="#ffd700" opacity="0.6"/>
    <rect x="360" y="70" width="5" height="3" fill="#ffd700" opacity="0.4"/>
    <rect x="336" y="85" width="5" height="3" fill="#ffd700" opacity="0.5"/>
    <rect x="360" y="85" width="5" height="3" fill="#ffd700" opacity="0.9"/>
    <rect x="348" y="100" width="5" height="3" fill="#ffd700" opacity="0.7"/>
    <rect x="336" y="115" width="5" height="3" fill="#ffd700" opacity="0.8"/>
    <rect x="360" y="115" width="5" height="3" fill="#ffd700" opacity="0.5"/>
    <rect x="336" y="140" width="5" height="3" fill="#ffd700" opacity="0.6"/>
    <rect x="348" y="140" width="5" height="3" fill="#ffd700" opacity="0.9"/>
    <rect x="360" y="140" width="5" height="3" fill="#ffd700" opacity="0.3"/>
    <rect x="336" y="170" width="5" height="3" fill="#ffd700" opacity="0.7"/>
    <rect x="360" y="170" width="5" height="3" fill="#ffd700" opacity="0.8"/>
    <rect x="348" y="200" width="5" height="3" fill="#ffd700" opacity="0.5"/>
    <rect x="336" y="230" width="5" height="3" fill="#ffd700" opacity="0.9"/>
    <rect x="360" y="230" width="5" height="3" fill="#ffd700" opacity="0.6"/>
    <rect x="348" y="260" width="5" height="3" fill="#ffd700" opacity="0.4"/>
    <rect x="336" y="280" width="5" height="3" fill="#ffd700" opacity="0.7"/>
  </g>
  <!-- Right building -->
  <rect x="400" y="180" width="60" height="120" fill="url(#bldg1)"/>
  <g opacity="0.7">
    <rect x="407" y="190" width="7" height="4" fill="#ffd700" opacity="0.6"/>
    <rect x="420" y="190" width="7" height="4" fill="#ffd700" opacity="0.8"/>
    <rect x="433" y="190" width="7" height="4" fill="#ffd700" opacity="0.4"/>
    <rect x="446" y="190" width="7" height="4" fill="#ffd700" opacity="0.9"/>
    <rect x="407" y="210" width="7" height="4" fill="#ffd700" opacity="0.5"/>
    <rect x="433" y="210" width="7" height="4" fill="#ffd700" opacity="0.7"/>
    <rect x="420" y="230" width="7" height="4" fill="#ffd700" opacity="0.8"/>
    <rect x="446" y="230" width="7" height="4" fill="#ffd700" opacity="0.3"/>
    <rect x="407" y="260" width="7" height="4" fill="#ffd700" opacity="0.9"/>
    <rect x="433" y="260" width="7" height="4" fill="#ffd700" opacity="0.6"/>
    <rect x="446" y="260" width="7" height="4" fill="#ffd700" opacity="0.5"/>
    <rect x="420" y="280" width="7" height="4" fill="#ffd700" opacity="0.7"/>
  </g>
  <text x="300" y="385" text-anchor="middle" fill="#aaa" font-family="sans-serif" font-size="13">Before: City skyline at dusk</text>
</svg>
